HIERARCHY
ROOT Hips
{
	OFFSET 0.000000 0.000000 0.000000 
	CHANNELS 6 Xposition Yposition Zposition Zrotation Yrotation Xrotation
	JOINT LeftUpLeg
	{
		OFFSET 1.363060 -1.794630 0.839290 
		CHANNELS 3 Zrotation Yrotation Xrotation
		JOINT LeftLeg
		{
			OFFSET 2.448110 -6.726130 0.000000 
			CHANNELS 3 Zrotation Yrotation Xrotation
			JOINT LeftFoot
			{
				OFFSET 2.562200 -7.039590 0.000000 
				CHANNELS 3 Zrotation Yrotation Xrotation
				JOINT LeftToeBase
				{
					OFFSET 0.157640 -0.433110 2.322550 
					CHANNELS 3 Zrotation Yrotation Xrotation
					End Site
					{
						OFFSET 0.000000 0.000000 0.000000 
					}
				}
			}
		}
	}
	JOINT RightUpLeg
	{
		OFFSET -1.305520 -1.794630 0.839290 
		CHANNELS 3 Zrotation Yrotation Xrotation
		JOINT RightLeg
		{
			OFFSET -2.542530 -6.985550 0.000000 
			CHANNELS 3 Zrotation Yrotation Xrotation
			JOINT RightFoot
			{
				OFFSET -2.568260 -7.056230 0.000000 
				CHANNELS 3 Zrotation Yrotation Xrotation
				JOINT RightToeBase
				{
					OFFSET -0.164730 -0.452590 2.363150 
					CHANNELS 3 Zrotation Yrotation Xrotation
					End Site
					{
						OFFSET 0.000000 0.000000 0.000000 
					}
				}
			}
		}
	}
	JOINT Spine
	{
		OFFSET 0.028270 2.035590 -0.193380 
		CHANNELS 3 Zrotation Yrotation Xrotation
		JOINT Spine1
		{
			OFFSET 0.056720 2.048850 -0.042750 
			CHANNELS 3 Zrotation Yrotation Xrotation
			JOINT Neck1
			{
				OFFSET -0.054170 1.746240 0.172020 
				CHANNELS 3 Zrotation Yrotation Xrotation
				JOINT Head
				{
					OFFSET 0.104070 1.761360 -0.123970 
					CHANNELS 3 Zrotation Yrotation Xrotation
					End Site
					{
						OFFSET 0.000000 0.000000 0.000000 
					}
				}
			}
			JOINT LeftArm
			{
				OFFSET 3.362410 1.200890 -0.311210 
				CHANNELS 3 Zrotation Yrotation Xrotation
				JOINT LeftForeArm
				{
					OFFSET 4.983000 -0.000000 -0.000000 
					CHANNELS 3 Zrotation Yrotation Xrotation
					JOINT LeftHand
					{
						OFFSET 3.483560 -0.000000 -0.000000 
						CHANNELS 3 Zrotation Yrotation Xrotation
						JOINT LeftHandIndex1
						{
							OFFSET 0.715260 -0.000000 -0.000000 
							CHANNELS 3 Zrotation Yrotation Xrotation
							End Site
							{
								OFFSET 0.000000 0.000000 0.000000 
							}
						}
					}
				}
			}
			JOINT RightArm
			{
				OFFSET -3.136600 1.374050 -0.404650 
				CHANNELS 3 Zrotation Yrotation Xrotation
				JOINT RightForeArm
				{
					OFFSET -5.241900 -0.000000 -0.000000 
					CHANNELS 3 Zrotation Yrotation Xrotation
					JOINT RightHand
					{
						OFFSET -3.444170 -0.000000 -0.000000 
						CHANNELS 3 Zrotation Yrotation Xrotation
						JOINT RightHandIndex1
						{
							OFFSET -0.622530 -0.000000 -0.000000 
							CHANNELS 3 Zrotation Yrotation Xrotation
							End Site
							{
								OFFSET 0.000000 0.000000 0.000000 
							}
						}
					}
				}
			}
		}
	}
}
MOTION
Frames: 9
Frame Time: 0.041667
-3.367240 16.843115 4.170446 -18.725648 -58.532286 31.657392 24.141730 -24.176759 -54.704445 8.013613 18.668267 51.497311 2.630162 -3.110848 26.169668 1.005200 -6.379800 -17.890600 17.328291 5.799959 -0.764857 -3.942280 -9.954420 34.216666 7.318587 -21.479781 12.447579 -0.703500 5.361200 -14.941600 -9.876260 15.315955 5.025785 -3.398152 8.195425 0.524262 -0.214605 1.568947 21.871831 2.003500 -0.088100 6.431500 -90.801566 33.282992 14.681965 147.368142 -44.233800 -108.511320 0.737042 -0.874892 -45.685212 -7.125000 0.000000 0.000000 79.367685 38.485823 31.817282 -68.410476 52.518572 -54.700327 -0.405244 2.411384 -82.087783 7.125000 0.000000 0.000000 
-3.377000 16.859075 4.162821 -21.783674 -59.804545 34.165957 24.792914 -22.965756 -54.552602 8.401659 18.888934 52.458720 2.684095 -3.036268 27.289908 0.872000 -5.953900 -16.650600 17.329279 5.929972 -1.706975 -3.970759 -10.029188 34.611185 7.899173 -22.108941 9.475629 -0.487800 4.478200 -12.426000 -10.158854 15.382886 4.926800 -3.822106 8.236479 0.682190 -0.628849 2.136356 21.712258 1.811900 0.195100 6.309500 -90.726600 34.189174 13.741978 147.109140 -44.489354 -108.365526 0.773181 -0.877139 -47.319899 -7.125000 0.000000 0.000000 79.149745 41.556222 32.486200 -70.170132 52.892852 -56.427442 -0.218342 2.417546 -80.927479 7.125000 0.000000 0.000000 
-3.389300 16.862328 4.150419 -24.670188 -61.358655 36.727409 25.042534 -21.450380 -54.366379 8.733543 19.052863 53.332234 2.767423 -3.268725 28.080350 0.783800 -5.651900 -15.777800 16.921427 6.268513 -2.832804 -3.930601 -10.072544 34.789324 8.362474 -22.613581 6.786033 -0.361300 3.861600 -10.687700 -10.539073 15.550122 4.758985 -4.172990 8.317921 0.841984 -1.103747 2.658278 21.488125 1.578300 0.463900 6.179000 -90.495028 35.024890 12.873515 146.585484 -44.959121 -108.063133 0.803197 -0.862695 -49.195336 -7.125000 0.000000 0.000000 78.718266 44.771973 32.833536 -71.688455 53.134542 -57.890795 -0.167671 2.414769 -80.323186 7.125000 0.000000 0.000000 
-3.396416 16.862633 4.151232 -26.929142 -63.235973 38.152037 24.403166 -20.124965 -53.347032 8.978615 19.126435 54.018564 2.814165 -3.552623 28.394127 0.763900 -5.581600 -15.575100 15.905131 6.641834 -3.421872 -3.823426 -10.078201 34.746209 8.628546 -22.802203 4.486320 -0.394700 4.033900 -11.172100 -10.838601 15.674410 4.737517 -4.402446 8.348297 0.595415 -1.458199 3.224312 21.328548 1.420000 0.744600 6.083100 -90.424365 35.871298 11.915980 145.879990 -45.578817 -107.633308 0.813953 -0.847438 -51.308564 -7.125000 0.000000 0.000000 78.020728 47.783181 33.043293 -72.874900 53.226282 -58.968543 -0.137767 2.443078 -80.382952 7.125000 0.000000 0.000000 
-3.400991 16.841996 4.150622 -29.277595 -64.761153 39.430504 23.783848 -18.971153 -52.051197 9.149513 19.142140 54.429056 2.810810 -3.611162 28.403162 0.714600 -5.402200 -15.059400 15.119827 6.716181 -3.902040 -3.704186 -10.107436 34.958560 8.207918 -21.535293 2.565279 -0.431300 4.214700 -11.681600 -10.912672 15.658256 4.797726 -4.489234 8.298850 0.275379 -1.749221 3.806994 21.124669 1.313100 1.027200 5.967700 -90.522773 36.675225 10.892498 144.845367 -46.440691 -106.986622 0.820639 -0.834158 -53.529384 -7.125000 0.000000 0.000000 77.149940 50.204171 33.210609 -73.992492 53.324831 -60.020603 -0.075593 2.426922 -80.565500 7.125000 0.000000 0.000000 
-3.409632 16.792692 4.154383 -32.610735 -65.783243 41.808247 23.769279 -17.852597 -50.850414 9.259945 19.130162 54.601277 2.806372 -3.679529 28.071383 0.700400 -5.349300 -14.907500 14.906163 6.545014 -4.491350 -3.570706 -10.145240 35.362948 6.973131 -18.598152 1.365860 -0.367000 3.891600 -10.771800 -10.889280 15.545693 4.898488 -4.578319 8.214556 0.425672 -2.241537 4.454690 20.578253 1.119400 1.356700 5.726900 -90.671775 37.253456 9.544928 143.488661 -47.506356 -106.131950 0.818127 -0.808680 -55.860832 -7.125000 0.000000 0.000000 76.513560 52.218621 33.722873 -75.160787 53.494326 -61.200070 -0.064081 2.402446 -80.449833 7.125000 0.000000 0.000000 
-3.416240 16.788016 4.180408 -35.295737 -67.392795 43.974460 22.983350 -16.667505 -49.354294 9.183139 18.977055 54.256187 2.720217 -3.558645 26.941078 0.822800 -5.787600 -16.169400 13.965566 5.995011 -5.763633 -3.790379 -10.385487 35.905435 7.739492 -20.299002 0.409708 -0.193300 2.831500 -7.810100 -11.042600 15.423585 4.805082 -4.405458 8.101949 0.328938 -2.781627 5.153476 20.176382 0.911400 1.701700 5.561500 -90.903205 37.852630 7.972504 141.834353 -48.728387 -105.078744 0.820232 -0.778743 -58.266322 -7.125000 0.000000 0.000000 76.018945 53.420312 34.461972 -76.192875 53.710855 -62.305220 -0.100835 2.369455 -79.968990 7.125000 0.000000 0.000000 
-3.427117 16.769920 4.196064 -38.823544 -68.537364 46.866042 22.574822 -15.572086 -47.621674 9.002314 18.755493 53.601461 2.691987 -3.731701 25.293841 1.039700 -6.485000 -18.198400 13.567814 6.101992 -6.852799 -3.950593 -10.606357 36.505601 7.934756 -20.736989 -0.129813 -0.020600 0.927200 -2.548600 -10.923045 15.284705 4.756977 -4.048503 7.976728 0.232909 -3.303048 5.843889 20.173411 0.741500 2.008600 5.627000 -91.257003 38.114409 6.403339 139.701298 -50.155287 -103.726004 0.867918 -0.734093 -60.609644 -7.125000 0.000000 0.000000 75.361554 53.757074 35.256084 -76.951586 53.912063 -63.166334 -0.167155 2.325594 -79.274089 7.125000 0.000000 0.000000 
-3.453345 16.732002 4.224528 -42.105961 -69.824699 49.473487 21.765477 -14.461780 -45.537282 8.775829 18.472181 52.822413 2.665124 -3.954300 22.932119 1.260900 -7.118000 -20.065400 12.804972 6.330966 -7.634990 -4.095069 -10.844546 37.134586 7.924115 -20.714998 -0.636239 -0.218400 3.008200 -8.301700 -11.020640 15.119643 4.735868 -3.780327 7.829714 0.234247 -3.653114 6.587735 20.325445 0.628800 2.343600 5.794700 -91.404577 38.193141 4.661453 137.095485 -51.736124 -102.078077 0.958967 -0.605925 -62.761842 -7.125000 0.000000 0.000000 75.185180 53.171370 36.378062 -77.639462 54.231269 -63.960699 -0.106190 2.296797 -78.246928 7.125000 0.000000 0.000000 
